# xmcd CD database file generated by Grip 3.3.1
# 
# Track frame offsets:
#       150
#       31997
#       53366
#       70580
#       100643
#       121540
#       138359
#       151538
#       173332
#       189577
#       202237
#       232435
#       251248
# 
# Disc length: 3661 seconds
# 
# Revision: 1
# Processed by: cddbd v1.5.2PL0 Copyright (c) Steve Scherf et al.
# Submitted via: Grip 3.3.1
# 
DISCID=a20e4b0d
DTITLE=Anniversary Edition - Alphons Diepenbrock CD5
DYEAR=2012
DGENRE=Classical
TTITLE0=Christoph Prégardien, tenor, Rudolf Jansen, piano - Entsagung
TTITLE1=Christoph Prégardien, tenor, Rudolf Jansen, piano - Der Fischer
TTITLE2=Christoph Prégardien, tenor, Rudolf Jansen, piano - Der Abend ko
TTITLE2=mmt gezogen
TTITLE3=Jard van Nes, mezzosoprano, Rudolf Jansen, piano - Mignon
TTITLE4=Jard van Nes, mezzosoprano, Rudolf Jansen, piano - Der König in 
TTITLE4=Thule
TTITLE5=Christa Pfeiler, mezzosoprano, Rudolf Jansen, piano - Die Liebend
TTITLE5=e schreibt
TTITLE6=Robert Holl, bass, Rudolf Jansen, piano - Es war ein alter König
TTITLE7=Claron McFadden, soprano, Leo van Doeselaar, pianist - Lied der S
TTITLE7=pinnerin
TTITLE8=Jard van Nes, mezzosoprano, Rudolf Jansen, piano - Kann ich im Bu
TTITLE8=sen
TTITLE9=David Kuyken, piano - Avondschemer voor piano
TTITLE10=Roberta Alexander, soprano, Rudolf Jansen, piano - Der Abend
TTITLE11=Jard van Nes, mezzosoprano, Rudolf Jansen, piano - Liebesklage
TTITLE12=Robert Holl, bass, Rudolf Jansen, piano - Celebrität
EXTD=
EXTT0=
EXTT1=
EXTT2=
EXTT3=
EXTT4=
EXTT5=
EXTT6=
EXTT7=
EXTT8=
EXTT9=
EXTT10=
EXTT11=
EXTT12=
PLAYORDER=
